<svg width="32" height="32" viewBox="0 0 32 32" fill="none" xmlns="http://www.w3.org/2000/svg">
<path d="M25.0666 13.2133C23.56 13.2133 22.2133 13.9467 21.3733 15.0667C20.5333 13.9467 19.1867 13.2133 17.68 13.2133C15.1333 13.2133 13.0667 15.2933 13.0667 17.8533C13.0667 18.84 13.2266 19.76 13.4933 20.6C14.8 24.7467 18.8533 27.24 20.8533 27.92C21.1333 28.0133 21.6 28.0133 21.88 27.92C23.88 27.24 27.9333 24.76 29.24 20.6C29.52 19.7467 29.6667 18.84 29.6667 17.8533C29.68 15.2933 27.6133 13.2133 25.0666 13.2133Z" fill="#7C5CFC"/>
<path d="M27.6667 11.12C27.6667 11.4267 27.3601 11.6267 27.0667 11.5467C25.2667 11.08 23.2934 11.4667 21.8001 12.5334C21.5067 12.7467 21.1067 12.7467 20.8267 12.5334C19.7734 11.76 18.4934 11.3334 17.1467 11.3334C13.7067 11.3334 10.9067 14.1467 10.9067 17.6134C10.9067 21.3734 12.7067 24.1867 14.5201 26.0667C14.6134 26.16 14.5334 26.32 14.4134 26.2667C10.7734 25.0267 2.66675 19.88 2.66675 11.12C2.66675 7.25336 5.77341 4.13336 9.61341 4.13336C11.8934 4.13336 13.9067 5.2267 15.1734 6.92003C16.4534 5.2267 18.4667 4.13336 20.7334 4.13336C24.5601 4.13336 27.6667 7.25336 27.6667 11.12Z" fill="#7C5CFC"/>
</svg>
