<svg width="486" height="434" viewBox="0 0 486 434" fill="none" xmlns="http://www.w3.org/2000/svg">
<rect width="486" height="434" rx="12" fill="#FAFAFA"/>
<g opacity="0.4" clip-path="url(#clip0_117_7113)">
<path d="M458 191H32" stroke="#B2B6B8" stroke-dasharray="10 10"/>
<path d="M458 242H32" stroke="#B2B6B8" stroke-dasharray="10 10"/>
<path d="M458 293H32" stroke="#B2B6B8" stroke-dasharray="10 10"/>
<path d="M458 344H32" stroke="#B2B6B8" stroke-dasharray="10 10"/>
<path d="M458 395H32" stroke="#B2B6B8" stroke-dasharray="10 10"/>
</g>
<path d="M42.44 129.6H45.5V126.36C47.084 126.216 48.476 125.796 49.676 125.1C50.876 124.38 51.812 123.468 52.484 122.364C53.156 121.26 53.492 120 53.492 118.584C53.492 115.008 51.356 112.536 47.084 111.168L45.5 110.664V103.356C47.348 103.98 48.656 105.276 49.424 107.244L53.456 105.444C52.856 103.74 51.848 102.312 50.432 101.16C49.04 100.008 47.396 99.264 45.5 98.928V95.58H42.44V98.784C40.856 98.904 39.452 99.312 38.228 100.008C37.028 100.68 36.092 101.58 35.42 102.708C34.748 103.836 34.412 105.12 34.412 106.56C34.412 108.312 34.94 109.836 35.996 111.132C37.052 112.404 38.624 113.376 40.712 114.048L42.44 114.588V121.86C41.36 121.572 40.388 121.032 39.524 120.24C38.66 119.424 37.976 118.416 37.472 117.216L33.404 118.98C34.052 120.948 35.18 122.592 36.788 123.912C38.396 125.208 40.28 126.012 42.44 126.324V129.6ZM42.152 109.62C41.192 109.308 40.46 108.876 39.956 108.324C39.476 107.748 39.236 107.088 39.236 106.344C39.236 105.48 39.524 104.76 40.1 104.184C40.676 103.608 41.456 103.248 42.44 103.104V109.728L42.152 109.62ZM45.86 115.704C46.796 116.016 47.492 116.424 47.948 116.928C48.428 117.432 48.668 118.08 48.668 118.872C48.668 119.712 48.38 120.42 47.804 120.996C47.228 121.548 46.46 121.908 45.5 122.076V115.596L45.86 115.704ZM65.6046 126.432C67.5486 126.432 69.2286 126.072 70.6446 125.352C72.0846 124.608 73.1886 123.624 73.9566 122.4C74.7486 121.152 75.1446 119.784 75.1446 118.296C75.1446 116.808 74.7966 115.524 74.1006 114.444C73.4286 113.34 72.4446 112.44 71.1486 111.744C72.0606 111.144 72.7686 110.352 73.2726 109.368C73.7766 108.36 74.0286 107.256 74.0286 106.056C74.0286 104.64 73.6686 103.38 72.9486 102.276C72.2286 101.172 71.2326 100.308 69.9606 99.684C68.6886 99.06 67.2366 98.748 65.6046 98.748C63.9486 98.748 62.4846 99.072 61.2126 99.72C59.9406 100.344 58.9446 101.208 58.2246 102.312C57.5046 103.392 57.1446 104.64 57.1446 106.056C57.1446 107.232 57.3966 108.336 57.9006 109.368C58.4046 110.4 59.1246 111.192 60.0606 111.744C57.3966 113.136 56.0646 115.308 56.0646 118.26C56.0646 119.748 56.4486 121.116 57.2166 122.364C58.0086 123.612 59.1126 124.608 60.5286 125.352C61.9686 126.072 63.6606 126.432 65.6046 126.432ZM65.6046 109.836C64.5486 109.836 63.6846 109.512 63.0126 108.864C62.3646 108.192 62.0406 107.352 62.0406 106.344C62.0406 105.36 62.3646 104.544 63.0126 103.896C63.6846 103.224 64.5486 102.888 65.6046 102.888C66.6606 102.888 67.5126 103.224 68.1606 103.896C68.8086 104.544 69.1326 105.36 69.1326 106.344C69.1326 107.352 68.8086 108.192 68.1606 108.864C67.5126 109.512 66.6606 109.836 65.6046 109.836ZM65.6046 122.292C64.2126 122.292 63.0966 121.908 62.2566 121.14C61.4166 120.372 60.9966 119.364 60.9966 118.116C60.9966 116.868 61.4166 115.872 62.2566 115.128C63.0966 114.36 64.2126 113.976 65.6046 113.976C66.9966 113.976 68.1126 114.36 68.9526 115.128C69.8166 115.872 70.2486 116.868 70.2486 118.116C70.2486 119.364 69.8166 120.372 68.9526 121.14C68.1126 121.908 66.9966 122.292 65.6046 122.292ZM86.5867 126.432C88.4347 126.432 90.0787 126.036 91.5187 125.244C92.9587 124.428 94.0867 123.336 94.9027 121.968C95.7427 120.576 96.1627 119.016 96.1627 117.288C96.1627 115.584 95.8027 114.072 95.0827 112.752C94.3627 111.408 93.3427 110.352 92.0227 109.584C90.7267 108.816 89.1907 108.432 87.4147 108.432C85.7107 108.432 84.3067 108.78 83.2027 109.476L84.0307 103.32H95.1547V99.18H80.5387L78.4147 114.084L82.4107 114.984C82.7467 114.216 83.2867 113.628 84.0307 113.22C84.7987 112.812 85.6507 112.608 86.5867 112.608C87.9547 112.608 89.0707 113.04 89.9347 113.904C90.7987 114.768 91.2307 115.896 91.2307 117.288C91.2307 118.68 90.7987 119.82 89.9347 120.708C89.0707 121.572 87.9547 122.004 86.5867 122.004C85.4827 122.004 84.4747 121.704 83.5627 121.104C82.6507 120.504 81.9907 119.604 81.5827 118.404L77.3347 119.916C77.6707 121.26 78.2947 122.424 79.2067 123.408C80.1427 124.392 81.2467 125.148 82.5187 125.676C83.8147 126.18 85.1707 126.432 86.5867 126.432ZM100.671 131.616C104.319 130.848 106.143 128.328 106.143 124.056V120.96H101.391V126H103.515C103.299 127.776 102.351 128.868 100.671 129.276V131.616ZM110.406 126H128.406V121.86H116.778L123.078 115.236C124.782 113.46 126.03 111.888 126.822 110.52C127.638 109.152 128.046 107.736 128.046 106.272C128.046 104.784 127.674 103.476 126.93 102.348C126.21 101.22 125.19 100.344 123.87 99.72C122.574 99.072 121.062 98.748 119.334 98.748C117.894 98.748 116.526 99.036 115.23 99.612C113.958 100.164 112.878 100.968 111.99 102.024C111.102 103.056 110.514 104.28 110.226 105.696L114.51 107.028C114.894 105.756 115.506 104.796 116.346 104.148C117.186 103.476 118.182 103.14 119.334 103.14C120.438 103.14 121.338 103.464 122.034 104.112C122.754 104.76 123.114 105.648 123.114 106.776C123.114 107.448 122.958 108.108 122.646 108.756C122.334 109.404 121.782 110.184 120.99 111.096C120.198 112.008 119.094 113.208 117.678 114.696L110.406 122.292V126ZM135.379 126H140.275V99.18H130.195V103.356H135.379V126ZM148.818 126H153.714V99.18H143.634V103.356H148.818V126ZM160.458 126H165.21V120.96H160.458V126ZM181.299 126.432C183.459 126.432 185.343 125.856 186.951 124.704C188.559 123.528 189.807 121.908 190.695 119.844C191.607 117.756 192.063 115.332 192.063 112.572C192.063 109.812 191.607 107.4 190.695 105.336C189.807 103.248 188.547 101.628 186.915 100.476C185.307 99.324 183.423 98.748 181.263 98.748C179.151 98.748 177.291 99.324 175.683 100.476C174.075 101.628 172.815 103.236 171.903 105.3C171.015 107.364 170.571 109.788 170.571 112.572C170.571 115.332 171.015 117.756 171.903 119.844C172.815 121.932 174.075 123.552 175.683 124.704C177.315 125.856 179.187 126.432 181.299 126.432ZM181.299 121.968C179.475 121.968 178.047 121.128 177.015 119.448C175.983 117.768 175.467 115.476 175.467 112.572C175.467 109.644 175.971 107.352 176.979 105.696C178.011 104.04 179.439 103.212 181.263 103.212C183.111 103.212 184.551 104.052 185.583 105.732C186.639 107.388 187.167 109.668 187.167 112.572C187.167 115.476 186.651 117.768 185.619 119.448C184.587 121.128 183.147 121.968 181.299 121.968ZM205.708 126.432C207.868 126.432 209.752 125.856 211.36 124.704C212.968 123.528 214.216 121.908 215.104 119.844C216.016 117.756 216.472 115.332 216.472 112.572C216.472 109.812 216.016 107.4 215.104 105.336C214.216 103.248 212.956 101.628 211.324 100.476C209.716 99.324 207.832 98.748 205.672 98.748C203.56 98.748 201.7 99.324 200.092 100.476C198.484 101.628 197.224 103.236 196.312 105.3C195.424 107.364 194.98 109.788 194.98 112.572C194.98 115.332 195.424 117.756 196.312 119.844C197.224 121.932 198.484 123.552 200.092 124.704C201.724 125.856 203.596 126.432 205.708 126.432ZM205.708 121.968C203.884 121.968 202.456 121.128 201.424 119.448C200.392 117.768 199.876 115.476 199.876 112.572C199.876 109.644 200.38 107.352 201.388 105.696C202.42 104.04 203.848 103.212 205.672 103.212C207.52 103.212 208.96 104.052 209.992 105.732C211.048 107.388 211.576 109.668 211.576 112.572C211.576 115.476 211.06 117.768 210.028 119.448C208.996 121.128 207.556 121.968 205.708 121.968Z" fill="#1A202C"/>
<path d="M256.818 111.142L265.37 110.394L266.118 118.946" stroke="#659711" stroke-width="2.5" stroke-miterlimit="10" stroke-linecap="round" stroke-linejoin="round"/>
<path d="M254.442 123.417L265.26 110.524" stroke="#659711" stroke-width="2.5" stroke-miterlimit="10" stroke-linecap="round" stroke-linejoin="round"/>
<path d="M286.852 124.667C287.852 124.667 288.739 124.453 289.512 124.027C290.299 123.587 290.912 122.993 291.352 122.247C291.792 121.487 292.012 120.627 292.012 119.667C292.012 118.76 291.806 117.953 291.392 117.247C290.992 116.54 290.439 115.98 289.732 115.567C289.026 115.153 288.219 114.947 287.312 114.947C287.099 114.947 286.899 114.96 286.712 114.987L290.972 109.527H287.732L283.572 114.927C283.066 115.593 282.672 116.2 282.392 116.747C282.112 117.293 281.919 117.807 281.812 118.287C281.719 118.767 281.672 119.247 281.672 119.727C281.672 120.673 281.892 121.52 282.332 122.267C282.772 123.013 283.379 123.6 284.152 124.027C284.939 124.453 285.839 124.667 286.852 124.667ZM286.852 122.207C286.159 122.207 285.572 121.973 285.092 121.507C284.626 121.04 284.392 120.44 284.392 119.707C284.392 118.96 284.626 118.36 285.092 117.907C285.572 117.44 286.159 117.207 286.852 117.207C287.546 117.207 288.126 117.44 288.592 117.907C289.059 118.36 289.292 118.96 289.292 119.707C289.292 120.44 289.052 121.04 288.572 121.507C288.106 121.973 287.532 122.207 286.852 122.207ZM298.184 124.667C299.21 124.667 300.124 124.447 300.924 124.007C301.724 123.553 302.35 122.947 302.804 122.187C303.27 121.413 303.504 120.547 303.504 119.587C303.504 118.64 303.304 117.8 302.904 117.067C302.504 116.32 301.937 115.733 301.204 115.307C300.484 114.88 299.63 114.667 298.644 114.667C297.697 114.667 296.917 114.86 296.304 115.247L296.764 111.827H302.944V109.527H294.824L293.644 117.807L295.864 118.307C296.05 117.88 296.35 117.553 296.764 117.327C297.19 117.1 297.664 116.987 298.184 116.987C298.944 116.987 299.564 117.227 300.044 117.707C300.524 118.187 300.764 118.813 300.764 119.587C300.764 120.36 300.524 120.993 300.044 121.487C299.564 121.967 298.944 122.207 298.184 122.207C297.57 122.207 297.01 122.04 296.504 121.707C295.997 121.373 295.63 120.873 295.404 120.207L293.044 121.047C293.23 121.793 293.577 122.44 294.084 122.987C294.604 123.533 295.217 123.953 295.924 124.247C296.644 124.527 297.397 124.667 298.184 124.667ZM306.008 127.547C308.035 127.12 309.048 125.72 309.048 123.347V121.627H306.408V124.427H307.588C307.468 125.413 306.942 126.02 306.008 126.247V127.547ZM313.254 124.427H315.974V109.527H310.374V111.847H313.254V124.427ZM325.615 117.087C326.348 117.087 327.008 116.913 327.595 116.567C328.181 116.207 328.648 115.733 328.995 115.147C329.341 114.56 329.515 113.907 329.515 113.187C329.515 112.467 329.341 111.813 328.995 111.227C328.648 110.627 328.181 110.153 327.595 109.807C327.008 109.46 326.348 109.287 325.615 109.287C324.881 109.287 324.215 109.46 323.615 109.807C323.015 110.153 322.541 110.627 322.195 111.227C321.848 111.813 321.675 112.467 321.675 113.187C321.675 113.907 321.848 114.56 322.195 115.147C322.541 115.733 323.015 116.207 323.615 116.567C324.215 116.913 324.881 117.087 325.615 117.087ZM323.275 124.427H326.075L338.155 109.527H335.355L323.275 124.427ZM325.615 115.067C325.041 115.067 324.588 114.873 324.255 114.487C323.935 114.1 323.775 113.667 323.775 113.187C323.775 112.707 323.935 112.273 324.255 111.887C324.588 111.487 325.041 111.287 325.615 111.287C326.188 111.287 326.628 111.487 326.935 111.887C327.255 112.273 327.415 112.707 327.415 113.187C327.415 113.667 327.255 114.1 326.935 114.487C326.628 114.873 326.188 115.067 325.615 115.067ZM335.755 124.667C336.488 124.667 337.148 124.493 337.735 124.147C338.335 123.787 338.808 123.313 339.155 122.727C339.501 122.14 339.675 121.487 339.675 120.767C339.675 120.047 339.501 119.393 339.155 118.807C338.808 118.207 338.335 117.733 337.735 117.387C337.148 117.04 336.488 116.867 335.755 116.867C335.021 116.867 334.355 117.04 333.755 117.387C333.168 117.733 332.701 118.207 332.355 118.807C332.008 119.393 331.835 120.047 331.835 120.767C331.835 121.487 332.008 122.14 332.355 122.727C332.701 123.313 333.168 123.787 333.755 124.147C334.355 124.493 335.021 124.667 335.755 124.667ZM335.755 122.647C335.181 122.647 334.735 122.453 334.415 122.067C334.095 121.68 333.935 121.247 333.935 120.767C333.935 120.287 334.095 119.853 334.415 119.467C334.735 119.067 335.181 118.867 335.755 118.867C336.328 118.867 336.775 119.067 337.095 119.467C337.415 119.853 337.575 120.287 337.575 120.767C337.575 121.247 337.415 121.68 337.095 122.067C336.775 122.453 336.328 122.647 335.755 122.647Z" fill="#659711"/>
<path d="M435 45C433.9 45 433 45.9 433 47C433 48.1 433.9 49 435 49C436.1 49 437 48.1 437 47C437 45.9 436.1 45 435 45Z" stroke="#90A3BF" stroke-width="1.5"/>
<path d="M449 45C447.9 45 447 45.9 447 47C447 48.1 447.9 49 449 49C450.1 49 451 48.1 451 47C451 45.9 450.1 45 449 45Z" stroke="#90A3BF" stroke-width="1.5"/>
<path d="M442 45C440.9 45 440 45.9 440 47C440 48.1 440.9 49 442 49C443.1 49 444 48.1 444 47C444 45.9 443.1 45 442 45Z" stroke="#90A3BF" stroke-width="1.5"/>
<path d="M33.54 55H39.84C41.4267 55 42.6733 54.6067 43.58 53.82C44.5 53.02 44.96 51.9133 44.96 50.5C44.96 49.7933 44.8067 49.1333 44.5 48.52C44.1933 47.9067 43.6933 47.3867 43 46.96C43.4533 46.6133 43.7867 46.2 44 45.72C44.2267 45.2267 44.34 44.7 44.34 44.14C44.34 42.9 43.9333 41.92 43.12 41.2C42.32 40.4667 41.22 40.1 39.82 40.1H33.54V55ZM35.9 46.04V42.14H39.88C40.52 42.14 41.0333 42.3133 41.42 42.66C41.8067 42.9933 42 43.4533 42 44.04C42 44.6267 41.8067 45.1067 41.42 45.48C41.0333 45.8533 40.52 46.04 39.88 46.04H35.9ZM35.9 52.9V48.12H40.02C40.8067 48.12 41.4333 48.34 41.9 48.78C42.3667 49.2067 42.6 49.7867 42.6 50.52C42.6 51.2533 42.3667 51.8333 41.9 52.26C41.4333 52.6867 40.8067 52.9 40.02 52.9H35.9ZM50.0077 55.24C50.7543 55.24 51.4277 55.1133 52.0277 54.86C52.6277 54.5933 53.1277 54.22 53.5277 53.74V55H55.6877V47.72C55.6877 46.9733 55.501 46.32 55.1277 45.76C54.7543 45.1867 54.241 44.74 53.5877 44.42C52.9343 44.1 52.181 43.94 51.3277 43.94C50.6477 43.94 50.001 44.06 49.3877 44.3C48.7877 44.5267 48.261 44.84 47.8077 45.24C47.3677 45.64 47.041 46.1067 46.8277 46.64L48.7077 47.58C48.921 47.0733 49.2477 46.6667 49.6877 46.36C50.141 46.0533 50.6677 45.9 51.2677 45.9C51.921 45.9 52.441 46.0733 52.8277 46.42C53.2277 46.7533 53.4277 47.1867 53.4277 47.72V48.14L49.9877 48.7C48.7343 48.9133 47.8077 49.3267 47.2077 49.94C46.621 50.54 46.3277 51.2733 46.3277 52.14C46.3277 53.0733 46.6677 53.8267 47.3477 54.4C48.0277 54.96 48.9143 55.24 50.0077 55.24ZM48.6877 52.06C48.6877 51.6333 48.8277 51.28 49.1077 51C49.3877 50.72 49.8277 50.5333 50.4277 50.44L53.4277 49.92V50.5C53.4277 51.0467 53.2943 51.5467 53.0277 52C52.7743 52.4533 52.421 52.8133 51.9677 53.08C51.5143 53.3333 50.981 53.46 50.3677 53.46C49.8743 53.46 49.4677 53.3333 49.1477 53.08C48.841 52.8133 48.6877 52.4733 48.6877 52.06ZM57.9302 55H60.1902V39.86H57.9302V55ZM65.6725 55.24C66.4192 55.24 67.0925 55.1133 67.6925 54.86C68.2925 54.5933 68.7925 54.22 69.1925 53.74V55H71.3525V47.72C71.3525 46.9733 71.1658 46.32 70.7925 45.76C70.4192 45.1867 69.9058 44.74 69.2525 44.42C68.5992 44.1 67.8458 43.94 66.9925 43.94C66.3125 43.94 65.6658 44.06 65.0525 44.3C64.4525 44.5267 63.9258 44.84 63.4725 45.24C63.0325 45.64 62.7058 46.1067 62.4925 46.64L64.3725 47.58C64.5858 47.0733 64.9125 46.6667 65.3525 46.36C65.8058 46.0533 66.3325 45.9 66.9325 45.9C67.5858 45.9 68.1058 46.0733 68.4925 46.42C68.8925 46.7533 69.0925 47.1867 69.0925 47.72V48.14L65.6525 48.7C64.3992 48.9133 63.4725 49.3267 62.8725 49.94C62.2858 50.54 61.9925 51.2733 61.9925 52.14C61.9925 53.0733 62.3325 53.8267 63.0125 54.4C63.6925 54.96 64.5792 55.24 65.6725 55.24ZM64.3525 52.06C64.3525 51.6333 64.4925 51.28 64.7725 51C65.0525 50.72 65.4925 50.5333 66.0925 50.44L69.0925 49.92V50.5C69.0925 51.0467 68.9592 51.5467 68.6925 52C68.4392 52.4533 68.0858 52.8133 67.6325 53.08C67.1792 53.3333 66.6458 53.46 66.0325 53.46C65.5392 53.46 65.1325 53.3333 64.8125 53.08C64.5058 52.8133 64.3525 52.4733 64.3525 52.06ZM73.595 55H75.855V48.62C75.855 47.82 76.0817 47.1933 76.535 46.74C76.9883 46.2733 77.5617 46.04 78.255 46.04C78.9617 46.04 79.535 46.2733 79.975 46.74C80.4283 47.1933 80.655 47.82 80.655 48.62V55H82.895V48C82.895 47.2 82.715 46.5 82.355 45.9C82.0083 45.2867 81.5283 44.8067 80.915 44.46C80.3017 44.1133 79.6017 43.94 78.815 43.94C78.1483 43.94 77.5483 44.0733 77.015 44.34C76.4817 44.6067 76.0617 44.9933 75.755 45.5V44.18H73.595V55ZM90.0538 55.24C90.8004 55.24 91.4938 55.1067 92.1338 54.84C92.7738 54.5733 93.3271 54.2133 93.7938 53.76C94.2738 53.2933 94.6204 52.7733 94.8338 52.2L92.8538 51.26C92.6138 51.8333 92.2471 52.2933 91.7538 52.64C91.2738 52.9733 90.7071 53.14 90.0538 53.14C89.4404 53.14 88.8871 52.9867 88.3938 52.68C87.9138 52.3733 87.5338 51.9533 87.2538 51.42C86.9738 50.8733 86.8338 50.26 86.8338 49.58C86.8338 48.8867 86.9738 48.28 87.2538 47.76C87.5338 47.2267 87.9138 46.8067 88.3938 46.5C88.8871 46.1933 89.4404 46.04 90.0538 46.04C90.7071 46.04 91.2804 46.2133 91.7738 46.56C92.2671 46.8933 92.6271 47.34 92.8538 47.9L94.8338 46.98C94.6071 46.38 94.2538 45.8533 93.7738 45.4C93.3071 44.9333 92.7538 44.5733 92.1138 44.32C91.4738 44.0667 90.7871 43.94 90.0538 43.94C88.9738 43.94 88.0138 44.1867 87.1738 44.68C86.3338 45.16 85.6738 45.8267 85.1938 46.68C84.7138 47.52 84.4738 48.48 84.4738 49.56C84.4738 50.64 84.7138 51.6067 85.1938 52.46C85.6738 53.3133 86.3338 53.9933 87.1738 54.5C88.0138 54.9933 88.9738 55.24 90.0538 55.24ZM101.723 55.24C102.829 55.24 103.789 54.9867 104.603 54.48C105.429 53.9733 106.009 53.3333 106.343 52.56L104.503 51.66C104.236 52.1133 103.869 52.4933 103.403 52.8C102.949 53.0933 102.396 53.24 101.743 53.24C100.889 53.24 100.163 52.9733 99.5627 52.44C98.9627 51.8933 98.6293 51.16 98.5627 50.24H106.603C106.643 50.08 106.669 49.9067 106.683 49.72C106.696 49.5333 106.703 49.3533 106.703 49.18C106.703 48.2467 106.496 47.3867 106.083 46.6C105.683 45.8 105.096 45.16 104.323 44.68C103.563 44.1867 102.636 43.94 101.543 43.94C100.529 43.94 99.616 44.1867 98.8027 44.68C98.0027 45.16 97.3693 45.8267 96.9027 46.68C96.436 47.52 96.2027 48.48 96.2027 49.56C96.2027 50.6267 96.436 51.5933 96.9027 52.46C97.3827 53.3133 98.036 53.9933 98.8627 54.5C99.6893 54.9933 100.643 55.24 101.723 55.24ZM101.543 45.84C102.303 45.84 102.943 46.08 103.463 46.56C103.983 47.04 104.263 47.6667 104.303 48.44H98.6027C98.736 47.6133 99.076 46.9733 99.6227 46.52C100.169 46.0667 100.809 45.84 101.543 45.84ZM117.044 55.24C118.044 55.24 118.924 55.06 119.684 54.7C120.458 54.34 121.058 53.84 121.484 53.2C121.911 52.5467 122.124 51.8067 122.124 50.98C122.124 49.02 120.931 47.6667 118.544 46.92L115.944 46.1C115.318 45.9133 114.851 45.6333 114.544 45.26C114.238 44.8867 114.084 44.46 114.084 43.98C114.084 43.3533 114.311 42.8533 114.764 42.48C115.231 42.1067 115.831 41.92 116.564 41.92C117.391 41.92 118.111 42.1333 118.724 42.56C119.338 42.9867 119.791 43.5933 120.084 44.38L122.044 43.52C121.804 42.8 121.418 42.1667 120.884 41.62C120.364 41.0733 119.738 40.6467 119.004 40.34C118.271 40.02 117.458 39.86 116.564 39.86C115.631 39.86 114.798 40.04 114.064 40.4C113.344 40.76 112.778 41.26 112.364 41.9C111.951 42.5267 111.744 43.26 111.744 44.1C111.744 45.06 112.038 45.9 112.624 46.62C113.211 47.3267 114.064 47.8533 115.184 48.2L117.984 49.08C118.571 49.2667 119.018 49.52 119.324 49.84C119.644 50.16 119.804 50.5933 119.804 51.14C119.804 51.7533 119.558 52.2467 119.064 52.62C118.584 52.98 117.944 53.16 117.144 53.16C116.238 53.16 115.431 52.9133 114.724 52.42C114.031 51.9267 113.511 51.22 113.164 50.3L111.164 51.14C111.431 51.94 111.844 52.6467 112.404 53.26C112.964 53.8733 113.638 54.36 114.424 54.72C115.224 55.0667 116.098 55.24 117.044 55.24ZM128.834 55.12C129.02 55.12 129.227 55.1067 129.454 55.08C129.68 55.0533 129.88 55.0267 130.054 55V53.06C129.8 53.1 129.554 53.12 129.314 53.12C128.66 53.12 128.194 52.9667 127.914 52.66C127.647 52.34 127.514 51.9067 127.514 51.36V46.22H129.974V44.18H127.514V41.7H125.254V42.54C125.254 43.0467 125.114 43.4467 124.834 43.74C124.554 44.0333 124.16 44.18 123.654 44.18H123.354V46.22H125.254V51.46C125.254 52.62 125.567 53.52 126.194 54.16C126.82 54.8 127.7 55.12 128.834 55.12ZM135.001 55.24C135.748 55.24 136.421 55.1133 137.021 54.86C137.621 54.5933 138.121 54.22 138.521 53.74V55H140.681V47.72C140.681 46.9733 140.495 46.32 140.121 45.76C139.748 45.1867 139.235 44.74 138.581 44.42C137.928 44.1 137.175 43.94 136.321 43.94C135.641 43.94 134.995 44.06 134.381 44.3C133.781 44.5267 133.255 44.84 132.801 45.24C132.361 45.64 132.035 46.1067 131.821 46.64L133.701 47.58C133.915 47.0733 134.241 46.6667 134.681 46.36C135.135 46.0533 135.661 45.9 136.261 45.9C136.915 45.9 137.435 46.0733 137.821 46.42C138.221 46.7533 138.421 47.1867 138.421 47.72V48.14L134.981 48.7C133.728 48.9133 132.801 49.3267 132.201 49.94C131.615 50.54 131.321 51.2733 131.321 52.14C131.321 53.0733 131.661 53.8267 132.341 54.4C133.021 54.96 133.908 55.24 135.001 55.24ZM133.681 52.06C133.681 51.6333 133.821 51.28 134.101 51C134.381 50.72 134.821 50.5333 135.421 50.44L138.421 49.92V50.5C138.421 51.0467 138.288 51.5467 138.021 52C137.768 52.4533 137.415 52.8133 136.961 53.08C136.508 53.3333 135.975 53.46 135.361 53.46C134.868 53.46 134.461 53.3333 134.141 53.08C133.835 52.8133 133.681 52.4733 133.681 52.06ZM147.409 55.12C147.595 55.12 147.802 55.1067 148.029 55.08C148.255 55.0533 148.455 55.0267 148.629 55V53.06C148.375 53.1 148.129 53.12 147.889 53.12C147.235 53.12 146.769 52.9667 146.489 52.66C146.222 52.34 146.089 51.9067 146.089 51.36V46.22H148.549V44.18H146.089V41.7H143.829V42.54C143.829 43.0467 143.689 43.4467 143.409 43.74C143.129 44.0333 142.735 44.18 142.229 44.18H141.929V46.22H143.829V51.46C143.829 52.62 144.142 53.52 144.769 54.16C145.395 54.8 146.275 55.12 147.409 55.12ZM150.434 42.7H152.694V40.1H150.434V42.7ZM150.434 55H152.694V44.18H150.434V55ZM158.936 55.24C159.736 55.24 160.436 55.1067 161.036 54.84C161.65 54.56 162.123 54.18 162.456 53.7C162.79 53.2067 162.956 52.64 162.956 52C162.956 51.2533 162.716 50.6133 162.236 50.08C161.756 49.5333 161.07 49.1333 160.176 48.88L158.416 48.36C158.083 48.2533 157.77 48.1067 157.476 47.92C157.183 47.7333 157.036 47.4533 157.036 47.08C157.036 46.6933 157.183 46.3867 157.476 46.16C157.77 45.9333 158.163 45.82 158.656 45.82C159.23 45.82 159.743 45.9733 160.196 46.28C160.663 46.5867 161.003 47 161.216 47.52L162.956 46.7C162.636 45.8333 162.09 45.16 161.316 44.68C160.543 44.1867 159.663 43.94 158.676 43.94C157.943 43.94 157.283 44.08 156.696 44.36C156.11 44.6267 155.65 45 155.316 45.48C154.983 45.96 154.816 46.5267 154.816 47.18C154.816 47.9133 155.043 48.5467 155.496 49.08C155.963 49.6133 156.663 50.0133 157.596 50.28L159.296 50.76C159.643 50.8533 159.97 51 160.276 51.2C160.583 51.3867 160.736 51.6733 160.736 52.06C160.736 52.4733 160.57 52.8 160.236 53.04C159.903 53.28 159.47 53.4 158.936 53.4C158.31 53.4 157.736 53.22 157.216 52.86C156.71 52.5 156.31 52.0133 156.016 51.4L154.276 52.22C154.61 53.14 155.19 53.8733 156.016 54.42C156.856 54.9667 157.83 55.24 158.936 55.24ZM169.451 55.12C169.637 55.12 169.844 55.1067 170.071 55.08C170.297 55.0533 170.497 55.0267 170.671 55V53.06C170.417 53.1 170.171 53.12 169.931 53.12C169.277 53.12 168.811 52.9667 168.531 52.66C168.264 52.34 168.131 51.9067 168.131 51.36V46.22H170.591V44.18H168.131V41.7H165.871V42.54C165.871 43.0467 165.731 43.4467 165.451 43.74C165.171 44.0333 164.777 44.18 164.271 44.18H163.971V46.22H165.871V51.46C165.871 52.62 166.184 53.52 166.811 54.16C167.437 54.8 168.317 55.12 169.451 55.12ZM172.476 42.7H174.736V40.1H172.476V42.7ZM172.476 55H174.736V44.18H172.476V55ZM182.119 55.24C182.865 55.24 183.559 55.1067 184.199 54.84C184.839 54.5733 185.392 54.2133 185.859 53.76C186.339 53.2933 186.685 52.7733 186.899 52.2L184.919 51.26C184.679 51.8333 184.312 52.2933 183.819 52.64C183.339 52.9733 182.772 53.14 182.119 53.14C181.505 53.14 180.952 52.9867 180.459 52.68C179.979 52.3733 179.599 51.9533 179.319 51.42C179.039 50.8733 178.899 50.26 178.899 49.58C178.899 48.8867 179.039 48.28 179.319 47.76C179.599 47.2267 179.979 46.8067 180.459 46.5C180.952 46.1933 181.505 46.04 182.119 46.04C182.772 46.04 183.345 46.2133 183.839 46.56C184.332 46.8933 184.692 47.34 184.919 47.9L186.899 46.98C186.672 46.38 186.319 45.8533 185.839 45.4C185.372 44.9333 184.819 44.5733 184.179 44.32C183.539 44.0667 182.852 43.94 182.119 43.94C181.039 43.94 180.079 44.1867 179.239 44.68C178.399 45.16 177.739 45.8267 177.259 46.68C176.779 47.52 176.539 48.48 176.539 49.56C176.539 50.64 176.779 51.6067 177.259 52.46C177.739 53.3133 178.399 53.9933 179.239 54.5C180.079 54.9933 181.039 55.24 182.119 55.24ZM192.707 55.24C193.507 55.24 194.207 55.1067 194.807 54.84C195.421 54.56 195.894 54.18 196.227 53.7C196.561 53.2067 196.727 52.64 196.727 52C196.727 51.2533 196.487 50.6133 196.007 50.08C195.527 49.5333 194.841 49.1333 193.947 48.88L192.187 48.36C191.854 48.2533 191.541 48.1067 191.247 47.92C190.954 47.7333 190.807 47.4533 190.807 47.08C190.807 46.6933 190.954 46.3867 191.247 46.16C191.541 45.9333 191.934 45.82 192.427 45.82C193.001 45.82 193.514 45.9733 193.967 46.28C194.434 46.5867 194.774 47 194.987 47.52L196.727 46.7C196.407 45.8333 195.861 45.16 195.087 44.68C194.314 44.1867 193.434 43.94 192.447 43.94C191.714 43.94 191.054 44.08 190.467 44.36C189.881 44.6267 189.421 45 189.087 45.48C188.754 45.96 188.587 46.5267 188.587 47.18C188.587 47.9133 188.814 48.5467 189.267 49.08C189.734 49.6133 190.434 50.0133 191.367 50.28L193.067 50.76C193.414 50.8533 193.741 51 194.047 51.2C194.354 51.3867 194.507 51.6733 194.507 52.06C194.507 52.4733 194.341 52.8 194.007 53.04C193.674 53.28 193.241 53.4 192.707 53.4C192.081 53.4 191.507 53.22 190.987 52.86C190.481 52.5 190.081 52.0133 189.787 51.4L188.047 52.22C188.381 53.14 188.961 53.8733 189.787 54.42C190.627 54.9667 191.601 55.24 192.707 55.24Z" fill="#90A3BF"/>
<g clip-path="url(#clip1_117_7113)">
<path d="M36.5126 283.286L34.6979 284.092C33.0573 284.822 32 286.449 32 288.244V482.909C32 485.418 34.0339 487.452 36.5429 487.452H636.21C638.719 487.452 640.753 485.418 640.753 482.909V264.639C640.753 264.029 640.622 263.425 640.37 262.869C638.67 259.13 633.19 259.701 632.299 263.711L630.908 269.969C629.995 274.078 624.469 274.843 622.473 271.137L621.596 269.509C620.804 268.037 619.268 267.12 617.597 267.12H608.008C605.9 267.12 604.069 265.669 603.586 263.617L600.327 249.768C600.034 248.522 599.229 247.458 598.111 246.837L592.854 243.916C590.982 242.876 588.638 243.284 587.228 244.896L586.916 245.252C584.605 247.894 580.298 247.028 579.188 243.697L575.03 231.224C574.931 230.926 574.863 230.619 574.827 230.308L571.655 202.82C571.537 201.801 571.079 200.853 570.354 200.128L566.926 196.699C564.429 194.202 560.162 195.384 559.306 198.81L558.07 203.751C557.448 206.24 554.415 207.19 552.484 205.501C550.415 203.69 547.163 204.928 546.822 207.657L541.554 249.802C540.93 254.793 533.859 255.22 532.639 250.34L530.587 242.134C530.037 237.598 523.413 237.734 523.051 242.289L521.97 255.877C521.532 261.38 513.508 261.486 512.924 255.997L512.625 253.186C512.491 251.932 511.842 250.79 510.833 250.033L507.872 247.812L505.197 245.583C503.352 244.045 500.533 245.073 500.111 247.438C499.457 251.097 494.107 250.77 493.903 247.059L490.454 184.293C490.271 180.96 485.703 180.177 484.419 183.258C484.161 183.877 483.712 184.397 483.136 184.743L478.871 187.302C475.999 189.025 472.313 187.153 472.009 183.818L466.8 126.515C466.44 122.554 461.523 120.935 458.88 123.908L457.729 125.203C457.102 125.909 456.71 126.794 456.608 127.733L452.373 166.911C452.274 167.823 451.902 168.683 451.305 169.38L447.475 173.848C446.233 175.297 444.218 175.815 442.431 175.145L441.429 174.769C438.772 173.773 435.861 175.43 435.362 178.225L434.092 185.337C433.246 190.077 426.575 190.416 425.252 185.787L424.411 182.845C424.042 181.551 423.118 180.488 421.888 179.942L414.964 176.864C414.089 176.476 413.388 175.78 412.992 174.909C411.416 171.442 406.319 172.043 405.592 175.781L400.692 200.979C400.277 203.113 398.408 204.654 396.233 204.654H387.624C385.54 204.654 383.723 206.073 383.217 208.095L381.1 216.564C380.847 217.575 379.94 218.283 378.899 218.283C377.922 218.283 377.055 218.908 376.746 219.835L375.421 223.809C374.093 227.793 368.533 227.996 366.918 224.12L366.152 222.281C365.989 221.889 365.771 221.522 365.506 221.191L362.071 216.898C361.606 216.316 361.291 215.629 361.154 214.897L358.073 198.465C357.995 198.05 357.86 197.648 357.671 197.271L354.922 191.773C354.675 191.279 354.52 190.744 354.465 190.194L351.893 164.474C351.552 161.064 347.704 159.245 344.853 161.146L342.59 162.654C341.526 163.364 340.81 164.489 340.619 165.753L335.62 198.748C335.384 200.302 334.362 201.624 332.917 202.243L331.569 202.821C329.223 203.826 326.51 202.702 325.562 200.332L323.198 194.422C321.969 191.35 317.903 190.706 315.785 193.248C315.146 194.015 314.264 194.54 313.285 194.735L301.694 197.053C299.448 197.503 297.218 196.209 296.493 194.035L292.378 181.689C292.183 181.105 291.872 180.567 291.464 180.107L289.529 177.93C286.955 175.035 282.171 176.482 281.634 180.319L275.999 220.572C275.547 223.796 271.953 225.513 269.162 223.838L258.862 217.658C255.913 215.888 252.143 217.911 251.987 221.347L247.905 311.151C247.833 312.726 246.95 314.151 245.573 314.916L238.35 318.929C237.833 319.216 237.378 319.601 237.009 320.062L228.836 330.278C228.601 330.572 228.403 330.894 228.248 331.237L223.068 342.632C222.892 343.018 222.772 343.427 222.71 343.846L218.835 370.002C218.505 372.229 216.593 373.879 214.341 373.879H210.868C208.597 373.879 206.674 375.557 206.367 377.808L204.502 391.487C204.043 394.856 200.181 396.544 197.395 394.595L193.585 391.927C192.655 391.276 192.002 390.3 191.755 389.191L189.257 377.949C188.509 374.581 184.427 373.244 181.831 375.516L179.518 377.539C178.86 378.115 178.382 378.869 178.142 379.71L175.015 390.654C174.152 393.675 169.822 393.53 169.164 390.457C168.436 387.062 163.491 387.382 163.207 390.842L158.835 444.029C158.524 447.814 153.983 449.569 151.208 446.978L142.188 438.561C141.439 437.861 140.948 436.928 140.795 435.913L137.922 416.755C137.732 415.488 137.015 414.36 135.949 413.649L135.832 413.571C134.8 412.883 134.094 411.803 133.878 410.581L131.248 395.676C130.975 394.128 129.921 392.831 128.462 392.247L123.608 390.306C121.43 389.434 118.989 390.723 118.48 393.013C117.605 396.952 112.008 396.999 111.066 393.076L108.342 381.726C108.179 381.046 107.862 380.414 107.414 379.877L103.778 375.513C102.915 374.478 101.636 373.879 100.288 373.879H99.7543C98.5494 373.879 97.3939 373.4 96.542 372.548L94.7493 370.756C93.2535 369.26 90.9231 368.994 89.1292 370.115L84.6154 372.937C83.6463 373.542 82.941 374.491 82.6403 375.594L82.384 376.534C81.0726 381.342 74.0949 380.836 73.4916 375.888L70.9266 354.856C70.7333 353.27 69.7216 351.903 68.2622 351.254L62.5419 348.712C61.1944 348.113 60.2214 346.897 59.9322 345.451L58.6737 339.159C58.3529 337.554 56.9441 336.4 55.3079 336.4C53.649 336.4 52.2275 335.213 51.9308 333.581L50.465 325.519C50.2952 324.585 49.4818 323.906 48.5326 323.906C47.5276 323.906 46.6847 323.148 46.5794 322.148L42.8756 286.962C42.5527 283.894 39.3315 282.033 36.5126 283.286Z" fill="url(#paint0_linear_117_7113)"/>
<path d="M32 285.291L36.5126 283.286C39.3315 282.033 42.5527 283.894 42.8756 286.962L46.5794 322.148C46.6847 323.148 47.5276 323.906 48.5326 323.906V323.906C49.4818 323.906 50.2952 324.585 50.465 325.519L51.9308 333.581C52.2275 335.213 53.649 336.4 55.3079 336.4V336.4C56.9441 336.4 58.3529 337.554 58.6737 339.159L59.9322 345.451C60.2214 346.897 61.1944 348.113 62.5419 348.712L68.2622 351.254C69.7216 351.903 70.7333 353.27 70.9266 354.856L73.4916 375.888C74.0949 380.836 81.0726 381.342 82.384 376.534L82.6403 375.594C82.941 374.491 83.6463 373.542 84.6154 372.937L89.1293 370.115C90.9231 368.994 93.2535 369.26 94.7493 370.756L96.542 372.548C97.3939 373.4 98.5494 373.879 99.7543 373.879H100.288C101.636 373.879 102.915 374.478 103.778 375.513L107.414 379.877C107.862 380.414 108.179 381.046 108.342 381.726L111.066 393.076C112.008 396.999 117.605 396.952 118.48 393.013V393.013C118.989 390.723 121.43 389.434 123.608 390.306L128.462 392.247C129.921 392.831 130.975 394.128 131.248 395.676L133.878 410.581C134.094 411.803 134.8 412.883 135.832 413.571L135.949 413.649C137.015 414.36 137.732 415.488 137.922 416.755L140.795 435.913C140.948 436.928 141.439 437.861 142.188 438.561L151.208 446.978C153.983 449.569 158.524 447.814 158.835 444.03L163.207 390.842C163.491 387.382 168.436 387.062 169.164 390.457V390.457C169.822 393.53 174.152 393.675 175.015 390.654L178.142 379.71C178.382 378.869 178.86 378.115 179.518 377.539L181.831 375.516C184.427 373.244 188.509 374.581 189.257 377.949L191.755 389.191C192.002 390.3 192.655 391.276 193.585 391.927L197.395 394.595C200.181 396.544 204.043 394.856 204.502 391.487L206.367 377.808C206.674 375.557 208.597 373.879 210.868 373.879H214.341C216.593 373.879 218.505 372.229 218.835 370.002L222.71 343.846C222.772 343.427 222.892 343.018 223.068 342.632L228.248 331.237C228.403 330.894 228.601 330.572 228.836 330.278L237.009 320.062C237.378 319.601 237.834 319.216 238.35 318.929L245.573 314.916C246.95 314.151 247.833 312.726 247.905 311.151L251.987 221.347C252.143 217.911 255.913 215.888 258.862 217.658L269.162 223.838C271.953 225.513 275.547 223.796 275.999 220.572L281.634 180.319C282.171 176.482 286.955 175.035 289.529 177.93L291.464 180.107C291.872 180.567 292.183 181.105 292.378 181.689L296.493 194.035C297.218 196.209 299.448 197.503 301.694 197.053L313.285 194.735C314.264 194.54 315.146 194.015 315.785 193.248V193.248C317.903 190.706 321.969 191.35 323.198 194.422L325.562 200.332C326.51 202.702 329.223 203.826 331.569 202.821L332.917 202.243C334.362 201.624 335.384 200.302 335.62 198.748L340.619 165.753C340.81 164.489 341.526 163.364 342.59 162.654L344.853 161.146C347.704 159.245 351.552 161.064 351.893 164.474L354.465 190.194C354.52 190.744 354.675 191.279 354.922 191.773L357.671 197.271C357.86 197.648 357.995 198.05 358.073 198.465L361.154 214.897C361.291 215.629 361.606 216.316 362.071 216.898L365.506 221.191C365.771 221.522 365.989 221.889 366.152 222.281L366.918 224.12C368.533 227.996 374.093 227.793 375.421 223.809L376.746 219.835C377.055 218.908 377.922 218.283 378.899 218.283V218.283C379.94 218.283 380.847 217.575 381.1 216.564L383.217 208.095C383.723 206.073 385.54 204.654 387.624 204.654H396.233C398.408 204.654 400.277 203.113 400.692 200.979L405.592 175.781C406.319 172.043 411.416 171.442 412.992 174.909V174.909C413.388 175.78 414.089 176.476 414.964 176.864L421.888 179.942C423.118 180.488 424.042 181.551 424.411 182.845L425.252 185.787C426.575 190.416 433.246 190.077 434.092 185.337L435.362 178.225C435.861 175.43 438.772 173.773 441.429 174.769L442.431 175.145C444.218 175.815 446.233 175.297 447.475 173.848L451.305 169.38C451.902 168.683 452.274 167.823 452.373 166.911L456.608 127.733C456.71 126.794 457.102 125.909 457.729 125.203L458.88 123.908C461.523 120.935 466.44 122.554 466.8 126.515L472.009 183.818C472.313 187.153 475.999 189.025 478.871 187.302L483.136 184.743C483.712 184.397 484.161 183.877 484.419 183.258V183.258C485.703 180.177 490.271 180.96 490.454 184.293L493.903 247.059C494.107 250.77 499.457 251.097 500.111 247.438V247.438C500.533 245.073 503.352 244.045 505.197 245.583L507.872 247.812L510.833 250.033C511.842 250.79 512.491 251.932 512.625 253.186L512.924 255.997C513.508 261.486 521.532 261.379 521.97 255.876L523.05 242.289C523.413 237.734 530.037 237.598 530.587 242.134V242.134L532.639 250.34C533.859 255.22 540.93 254.793 541.554 249.802L546.822 207.657C547.163 204.928 550.415 203.69 552.484 205.501V205.501C554.415 207.19 557.448 206.24 558.071 203.751L559.306 198.81C560.162 195.384 564.429 194.202 566.926 196.699L570.354 200.128C571.079 200.853 571.537 201.801 571.655 202.82L574.827 230.308C574.863 230.619 574.931 230.926 575.03 231.224L579.188 243.697C580.298 247.028 584.605 247.894 586.916 245.252L587.228 244.896C588.638 243.284 590.982 242.876 592.854 243.916L598.111 246.837C599.229 247.458 600.034 248.522 600.327 249.768L603.586 263.617C604.069 265.669 605.9 267.12 608.008 267.12H617.597C619.268 267.12 620.804 268.037 621.597 269.509L622.473 271.137C624.469 274.843 629.995 274.077 630.908 269.969L632.127 264.484C633.073 260.226 638.948 259.742 640.753 263.713V263.713" stroke="#659711" stroke-width="3"/>
</g>
<defs>
<linearGradient id="paint0_linear_117_7113" x1="297" y1="-1258" x2="336.377" y2="513.574" gradientUnits="userSpaceOnUse">
<stop stop-color="#659711"/>
<stop offset="1" stop-color="#659711" stop-opacity="0"/>
</linearGradient>
<clipPath id="clip0_117_7113">
<rect width="422" height="204" fill="white" transform="translate(32 191)"/>
</clipPath>
<clipPath id="clip1_117_7113">
<rect width="422" height="286" fill="white" transform="translate(32 116)"/>
</clipPath>
</defs>
</svg>
