<svg width="486" height="434" viewBox="0 0 486 434" fill="none" xmlns="http://www.w3.org/2000/svg">
<rect width="486" height="434" rx="12" fill="#FAFAFA"/>
<g opacity="0.4" clip-path="url(#clip0_117_7112)">
<path d="M458 191H32" stroke="#B2B6B8" stroke-dasharray="10 10"/>
<path d="M458 242H32" stroke="#B2B6B8" stroke-dasharray="10 10"/>
<path d="M458 293H32" stroke="#B2B6B8" stroke-dasharray="10 10"/>
<path d="M458 344H32" stroke="#B2B6B8" stroke-dasharray="10 10"/>
<path d="M458 395H32" stroke="#B2B6B8" stroke-dasharray="10 10"/>
</g>
<path d="M42.44 129.6H45.5V126.36C47.084 126.216 48.476 125.796 49.676 125.1C50.876 124.38 51.812 123.468 52.484 122.364C53.156 121.26 53.492 120 53.492 118.584C53.492 115.008 51.356 112.536 47.084 111.168L45.5 110.664V103.356C47.348 103.98 48.656 105.276 49.424 107.244L53.456 105.444C52.856 103.74 51.848 102.312 50.432 101.16C49.04 100.008 47.396 99.264 45.5 98.928V95.58H42.44V98.784C40.856 98.904 39.452 99.312 38.228 100.008C37.028 100.68 36.092 101.58 35.42 102.708C34.748 103.836 34.412 105.12 34.412 106.56C34.412 108.312 34.94 109.836 35.996 111.132C37.052 112.404 38.624 113.376 40.712 114.048L42.44 114.588V121.86C41.36 121.572 40.388 121.032 39.524 120.24C38.66 119.424 37.976 118.416 37.472 117.216L33.404 118.98C34.052 120.948 35.18 122.592 36.788 123.912C38.396 125.208 40.28 126.012 42.44 126.324V129.6ZM42.152 109.62C41.192 109.308 40.46 108.876 39.956 108.324C39.476 107.748 39.236 107.088 39.236 106.344C39.236 105.48 39.524 104.76 40.1 104.184C40.676 103.608 41.456 103.248 42.44 103.104V109.728L42.152 109.62ZM45.86 115.704C46.796 116.016 47.492 116.424 47.948 116.928C48.428 117.432 48.668 118.08 48.668 118.872C48.668 119.712 48.38 120.42 47.804 120.996C47.228 121.548 46.46 121.908 45.5 122.076V115.596L45.86 115.704ZM55.8846 126H73.8846V121.86H62.2566L68.5566 115.236C70.2606 113.46 71.5086 111.888 72.3006 110.52C73.1166 109.152 73.5246 107.736 73.5246 106.272C73.5246 104.784 73.1526 103.476 72.4086 102.348C71.6886 101.22 70.6686 100.344 69.3486 99.72C68.0526 99.072 66.5406 98.748 64.8126 98.748C63.3726 98.748 62.0046 99.036 60.7086 99.612C59.4366 100.164 58.3566 100.968 57.4686 102.024C56.5806 103.056 55.9926 104.28 55.7046 105.696L59.9886 107.028C60.3726 105.756 60.9846 104.796 61.8246 104.148C62.6646 103.476 63.6606 103.14 64.8126 103.14C65.9166 103.14 66.8166 103.464 67.5126 104.112C68.2326 104.76 68.5926 105.648 68.5926 106.776C68.5926 107.448 68.4366 108.108 68.1246 108.756C67.8126 109.404 67.2606 110.184 66.4686 111.096C65.6766 112.008 64.5726 113.208 63.1566 114.696L55.8846 122.292V126ZM85.3211 126.432C87.1691 126.432 88.8131 126.036 90.2531 125.244C91.6931 124.428 92.8211 123.336 93.6371 121.968C94.4771 120.576 94.8971 119.016 94.8971 117.288C94.8971 115.584 94.5371 114.072 93.8171 112.752C93.0971 111.408 92.0771 110.352 90.7571 109.584C89.4611 108.816 87.9251 108.432 86.1491 108.432C84.4451 108.432 83.0411 108.78 81.9371 109.476L82.7651 103.32H93.8891V99.18H79.2731L77.1491 114.084L81.1451 114.984C81.4811 114.216 82.0211 113.628 82.7651 113.22C83.5331 112.812 84.3851 112.608 85.3211 112.608C86.6891 112.608 87.8051 113.04 88.6691 113.904C89.5331 114.768 89.9651 115.896 89.9651 117.288C89.9651 118.68 89.5331 119.82 88.6691 120.708C87.8051 121.572 86.6891 122.004 85.3211 122.004C84.2171 122.004 83.2091 121.704 82.2971 121.104C81.3851 120.504 80.7251 119.604 80.3171 118.404L76.0691 119.916C76.4051 121.26 77.0291 122.424 77.9411 123.408C78.8771 124.392 79.9811 125.148 81.2531 125.676C82.5491 126.18 83.9051 126.432 85.3211 126.432ZM99.4055 131.616C103.053 130.848 104.877 128.328 104.877 124.056V120.96H100.125V126H102.249C102.033 127.776 101.085 128.868 99.4055 129.276V131.616ZM110.077 126H115.477L126.385 103.32V99.18H108.601V103.32H121.237L110.077 126ZM137.89 126.432C139.834 126.432 141.514 126.072 142.93 125.352C144.37 124.608 145.474 123.624 146.242 122.4C147.034 121.152 147.43 119.784 147.43 118.296C147.43 116.808 147.082 115.524 146.386 114.444C145.714 113.34 144.73 112.44 143.434 111.744C144.346 111.144 145.054 110.352 145.558 109.368C146.062 108.36 146.314 107.256 146.314 106.056C146.314 104.64 145.954 103.38 145.234 102.276C144.514 101.172 143.518 100.308 142.246 99.684C140.974 99.06 139.522 98.748 137.89 98.748C136.234 98.748 134.77 99.072 133.498 99.72C132.226 100.344 131.23 101.208 130.51 102.312C129.79 103.392 129.43 104.64 129.43 106.056C129.43 107.232 129.682 108.336 130.186 109.368C130.69 110.4 131.41 111.192 132.346 111.744C129.682 113.136 128.35 115.308 128.35 118.26C128.35 119.748 128.734 121.116 129.502 122.364C130.294 123.612 131.398 124.608 132.814 125.352C134.254 126.072 135.946 126.432 137.89 126.432ZM137.89 109.836C136.834 109.836 135.97 109.512 135.298 108.864C134.65 108.192 134.326 107.352 134.326 106.344C134.326 105.36 134.65 104.544 135.298 103.896C135.97 103.224 136.834 102.888 137.89 102.888C138.946 102.888 139.798 103.224 140.446 103.896C141.094 104.544 141.418 105.36 141.418 106.344C141.418 107.352 141.094 108.192 140.446 108.864C139.798 109.512 138.946 109.836 137.89 109.836ZM137.89 122.292C136.498 122.292 135.382 121.908 134.542 121.14C133.702 120.372 133.282 119.364 133.282 118.116C133.282 116.868 133.702 115.872 134.542 115.128C135.382 114.36 136.498 113.976 137.89 113.976C139.282 113.976 140.398 114.36 141.238 115.128C142.102 115.872 142.534 116.868 142.534 118.116C142.534 119.364 142.102 120.372 141.238 121.14C140.398 121.908 139.282 122.292 137.89 122.292ZM160.924 126.432C163.084 126.432 164.968 125.856 166.576 124.704C168.184 123.528 169.432 121.908 170.32 119.844C171.232 117.756 171.688 115.332 171.688 112.572C171.688 109.812 171.232 107.4 170.32 105.336C169.432 103.248 168.172 101.628 166.54 100.476C164.932 99.324 163.048 98.748 160.888 98.748C158.776 98.748 156.916 99.324 155.308 100.476C153.7 101.628 152.44 103.236 151.528 105.3C150.64 107.364 150.196 109.788 150.196 112.572C150.196 115.332 150.64 117.756 151.528 119.844C152.44 121.932 153.7 123.552 155.308 124.704C156.94 125.856 158.812 126.432 160.924 126.432ZM160.924 121.968C159.1 121.968 157.672 121.128 156.64 119.448C155.608 117.768 155.092 115.476 155.092 112.572C155.092 109.644 155.596 107.352 156.604 105.696C157.636 104.04 159.064 103.212 160.888 103.212C162.736 103.212 164.176 104.052 165.208 105.732C166.264 107.388 166.792 109.668 166.792 112.572C166.792 115.476 166.276 117.768 165.244 119.448C164.212 121.128 162.772 121.968 160.924 121.968ZM177.016 126H181.768V120.96H177.016V126ZM197.858 126.432C200.018 126.432 201.902 125.856 203.51 124.704C205.118 123.528 206.366 121.908 207.254 119.844C208.166 117.756 208.622 115.332 208.622 112.572C208.622 109.812 208.166 107.4 207.254 105.336C206.366 103.248 205.106 101.628 203.474 100.476C201.866 99.324 199.982 98.748 197.822 98.748C195.71 98.748 193.85 99.324 192.242 100.476C190.634 101.628 189.374 103.236 188.462 105.3C187.574 107.364 187.13 109.788 187.13 112.572C187.13 115.332 187.574 117.756 188.462 119.844C189.374 121.932 190.634 123.552 192.242 124.704C193.874 125.856 195.746 126.432 197.858 126.432ZM197.858 121.968C196.034 121.968 194.606 121.128 193.574 119.448C192.542 117.768 192.026 115.476 192.026 112.572C192.026 109.644 192.53 107.352 193.538 105.696C194.57 104.04 195.998 103.212 197.822 103.212C199.67 103.212 201.11 104.052 202.142 105.732C203.198 107.388 203.726 109.668 203.726 112.572C203.726 115.476 203.21 117.768 202.178 119.448C201.146 121.128 199.706 121.968 197.858 121.968ZM222.266 126.432C224.426 126.432 226.31 125.856 227.918 124.704C229.526 123.528 230.774 121.908 231.662 119.844C232.574 117.756 233.03 115.332 233.03 112.572C233.03 109.812 232.574 107.4 231.662 105.336C230.774 103.248 229.514 101.628 227.882 100.476C226.274 99.324 224.39 98.748 222.23 98.748C220.118 98.748 218.258 99.324 216.65 100.476C215.042 101.628 213.782 103.236 212.87 105.3C211.982 107.364 211.538 109.788 211.538 112.572C211.538 115.332 211.982 117.756 212.87 119.844C213.782 121.932 215.042 123.552 216.65 124.704C218.282 125.856 220.154 126.432 222.266 126.432ZM222.266 121.968C220.442 121.968 219.014 121.128 217.982 119.448C216.95 117.768 216.434 115.476 216.434 112.572C216.434 109.644 216.938 107.352 217.946 105.696C218.978 104.04 220.406 103.212 222.23 103.212C224.078 103.212 225.518 104.052 226.55 105.732C227.606 107.388 228.134 109.668 228.134 112.572C228.134 115.476 227.618 117.768 226.586 119.448C225.554 121.128 224.114 121.968 222.266 121.968Z" fill="#1A202C"/>
<path d="M283.118 114.866L282.37 123.417L273.818 122.669" stroke="#DB2719" stroke-width="2.5" stroke-miterlimit="10" stroke-linecap="round" stroke-linejoin="round"/>
<path d="M271.442 110.395L282.26 123.287" stroke="#DB2719" stroke-width="2.5" stroke-miterlimit="10" stroke-linecap="round" stroke-linejoin="round"/>
<path d="M305.372 124.427V121.147H298.532V118.867L305.212 109.527H308.052V118.867H310.232V121.147H308.052V124.427H305.372ZM300.532 119.847L300.052 118.867H305.372V111.667L306.072 111.887L300.532 119.847ZM316.238 124.667C315.451 124.667 314.698 124.52 313.978 124.227C313.271 123.933 312.658 123.52 312.138 122.987C311.631 122.44 311.285 121.793 311.098 121.047L313.458 120.207C313.685 120.887 314.051 121.393 314.558 121.727C315.065 122.047 315.625 122.207 316.238 122.207C316.745 122.207 317.191 122.1 317.578 121.887C317.978 121.66 318.285 121.353 318.498 120.967C318.711 120.567 318.818 120.107 318.818 119.587C318.818 119.067 318.705 118.613 318.478 118.227C318.265 117.84 317.965 117.54 317.578 117.327C317.191 117.1 316.745 116.987 316.238 116.987C315.718 116.987 315.245 117.1 314.818 117.327C314.405 117.553 314.105 117.88 313.918 118.307L311.698 117.807L312.878 109.527H320.998V111.827H313.958L314.978 110.647L314.138 116.887L313.358 116.247C313.731 115.7 314.185 115.3 314.718 115.047C315.265 114.793 315.925 114.667 316.698 114.667C317.685 114.667 318.538 114.88 319.258 115.307C319.991 115.733 320.558 116.313 320.958 117.047C321.358 117.78 321.558 118.627 321.558 119.587C321.558 120.547 321.325 121.413 320.858 122.187C320.391 122.96 319.758 123.567 318.958 124.007C318.158 124.447 317.251 124.667 316.238 124.667ZM324.063 127.547V126.247C324.503 126.14 324.856 125.933 325.123 125.627C325.403 125.333 325.576 124.933 325.643 124.427H324.463V121.627H327.103V123.347C327.103 124.52 326.843 125.46 326.323 126.167C325.816 126.873 325.063 127.333 324.063 127.547ZM334.591 124.667C333.578 124.667 332.678 124.453 331.891 124.027C331.118 123.587 330.511 123 330.071 122.267C329.631 121.52 329.411 120.673 329.411 119.727C329.411 119.247 329.458 118.767 329.551 118.287C329.658 117.807 329.844 117.293 330.111 116.747C330.391 116.2 330.791 115.593 331.311 114.927L335.471 109.527H338.711L333.651 116.027L333.211 115.547C333.398 115.4 333.591 115.287 333.791 115.207C333.991 115.113 334.191 115.047 334.391 115.007C334.604 114.967 334.824 114.947 335.051 114.947C335.958 114.947 336.764 115.153 337.471 115.567C338.178 115.98 338.731 116.547 339.131 117.267C339.544 117.973 339.751 118.773 339.751 119.667C339.751 120.627 339.531 121.487 339.091 122.247C338.651 122.993 338.038 123.587 337.251 124.027C336.478 124.453 335.591 124.667 334.591 124.667ZM334.591 122.207C335.044 122.207 335.451 122.107 335.811 121.907C336.184 121.693 336.478 121.393 336.691 121.007C336.918 120.62 337.031 120.187 337.031 119.707C337.031 119.2 336.918 118.767 336.691 118.407C336.478 118.033 336.191 117.74 335.831 117.527C335.471 117.313 335.058 117.207 334.591 117.207C334.138 117.207 333.724 117.313 333.351 117.527C332.978 117.74 332.678 118.033 332.451 118.407C332.238 118.767 332.131 119.2 332.131 119.707C332.131 120.187 332.238 120.62 332.451 121.007C332.678 121.393 332.978 121.693 333.351 121.907C333.724 122.107 334.138 122.207 334.591 122.207ZM345.997 124.427L358.077 109.527H360.877L348.797 124.427H345.997ZM348.317 117.087C347.584 117.087 346.917 116.913 346.317 116.567C345.73 116.207 345.264 115.733 344.917 115.147C344.57 114.56 344.397 113.907 344.397 113.187C344.397 112.467 344.57 111.813 344.917 111.227C345.264 110.627 345.73 110.153 346.317 109.807C346.917 109.46 347.584 109.287 348.317 109.287C349.064 109.287 349.73 109.46 350.317 109.807C350.904 110.153 351.37 110.627 351.717 111.227C352.064 111.813 352.237 112.467 352.237 113.187C352.237 113.907 352.064 114.56 351.717 115.147C351.37 115.733 350.904 116.207 350.317 116.567C349.73 116.913 349.064 117.087 348.317 117.087ZM348.317 115.067C348.717 115.067 349.05 114.98 349.317 114.807C349.584 114.62 349.784 114.387 349.917 114.107C350.064 113.813 350.137 113.507 350.137 113.187C350.137 112.853 350.064 112.547 349.917 112.267C349.784 111.987 349.584 111.753 349.317 111.567C349.05 111.38 348.717 111.287 348.317 111.287C347.944 111.287 347.617 111.38 347.337 111.567C347.07 111.753 346.864 111.993 346.717 112.287C346.57 112.567 346.497 112.867 346.497 113.187C346.497 113.493 346.57 113.793 346.717 114.087C346.864 114.38 347.07 114.62 347.337 114.807C347.617 114.98 347.944 115.067 348.317 115.067ZM358.477 124.667C357.744 124.667 357.077 124.493 356.477 124.147C355.89 123.787 355.424 123.313 355.077 122.727C354.73 122.14 354.557 121.487 354.557 120.767C354.557 120.047 354.73 119.393 355.077 118.807C355.424 118.207 355.89 117.733 356.477 117.387C357.077 117.04 357.744 116.867 358.477 116.867C359.224 116.867 359.89 117.04 360.477 117.387C361.064 117.733 361.53 118.207 361.877 118.807C362.224 119.393 362.397 120.047 362.397 120.767C362.397 121.487 362.224 122.14 361.877 122.727C361.53 123.313 361.064 123.787 360.477 124.147C359.89 124.493 359.224 124.667 358.477 124.667ZM358.477 122.647C358.864 122.647 359.19 122.56 359.457 122.387C359.737 122.2 359.944 121.967 360.077 121.687C360.224 121.393 360.297 121.087 360.297 120.767C360.297 120.433 360.224 120.127 360.077 119.847C359.944 119.567 359.737 119.333 359.457 119.147C359.19 118.96 358.864 118.867 358.477 118.867C358.104 118.867 357.777 118.96 357.497 119.147C357.23 119.333 357.024 119.573 356.877 119.867C356.73 120.147 356.657 120.447 356.657 120.767C356.657 121.073 356.73 121.373 356.877 121.667C357.024 121.96 357.23 122.2 357.497 122.387C357.777 122.56 358.104 122.647 358.477 122.647Z" fill="#DB2719"/>
<path d="M435 45C433.9 45 433 45.9 433 47C433 48.1 433.9 49 435 49C436.1 49 437 48.1 437 47C437 45.9 436.1 45 435 45Z" stroke="#90A3BF" stroke-width="1.5"/>
<path d="M449 45C447.9 45 447 45.9 447 47C447 48.1 447.9 49 449 49C450.1 49 451 48.1 451 47C451 45.9 450.1 45 449 45Z" stroke="#90A3BF" stroke-width="1.5"/>
<path d="M442 45C440.9 45 440 45.9 440 47C440 48.1 440.9 49 442 49C443.1 49 444 48.1 444 47C444 45.9 443.1 45 442 45Z" stroke="#90A3BF" stroke-width="1.5"/>
<path d="M33.54 55H39.84C41.4267 55 42.6733 54.6067 43.58 53.82C44.5 53.02 44.96 51.9133 44.96 50.5C44.96 49.7933 44.8067 49.1333 44.5 48.52C44.1933 47.9067 43.6933 47.3867 43 46.96C43.4533 46.6133 43.7867 46.2 44 45.72C44.2267 45.2267 44.34 44.7 44.34 44.14C44.34 42.9 43.9333 41.92 43.12 41.2C42.32 40.4667 41.22 40.1 39.82 40.1H33.54V55ZM35.9 46.04V42.14H39.88C40.52 42.14 41.0333 42.3133 41.42 42.66C41.8067 42.9933 42 43.4533 42 44.04C42 44.6267 41.8067 45.1067 41.42 45.48C41.0333 45.8533 40.52 46.04 39.88 46.04H35.9ZM35.9 52.9V48.12H40.02C40.8067 48.12 41.4333 48.34 41.9 48.78C42.3667 49.2067 42.6 49.7867 42.6 50.52C42.6 51.2533 42.3667 51.8333 41.9 52.26C41.4333 52.6867 40.8067 52.9 40.02 52.9H35.9ZM50.0077 55.24C50.7543 55.24 51.4277 55.1133 52.0277 54.86C52.6277 54.5933 53.1277 54.22 53.5277 53.74V55H55.6877V47.72C55.6877 46.9733 55.501 46.32 55.1277 45.76C54.7543 45.1867 54.241 44.74 53.5877 44.42C52.9343 44.1 52.181 43.94 51.3277 43.94C50.6477 43.94 50.001 44.06 49.3877 44.3C48.7877 44.5267 48.261 44.84 47.8077 45.24C47.3677 45.64 47.041 46.1067 46.8277 46.64L48.7077 47.58C48.921 47.0733 49.2477 46.6667 49.6877 46.36C50.141 46.0533 50.6677 45.9 51.2677 45.9C51.921 45.9 52.441 46.0733 52.8277 46.42C53.2277 46.7533 53.4277 47.1867 53.4277 47.72V48.14L49.9877 48.7C48.7343 48.9133 47.8077 49.3267 47.2077 49.94C46.621 50.54 46.3277 51.2733 46.3277 52.14C46.3277 53.0733 46.6677 53.8267 47.3477 54.4C48.0277 54.96 48.9143 55.24 50.0077 55.24ZM48.6877 52.06C48.6877 51.6333 48.8277 51.28 49.1077 51C49.3877 50.72 49.8277 50.5333 50.4277 50.44L53.4277 49.92V50.5C53.4277 51.0467 53.2943 51.5467 53.0277 52C52.7743 52.4533 52.421 52.8133 51.9677 53.08C51.5143 53.3333 50.981 53.46 50.3677 53.46C49.8743 53.46 49.4677 53.3333 49.1477 53.08C48.841 52.8133 48.6877 52.4733 48.6877 52.06ZM57.9302 55H60.1902V39.86H57.9302V55ZM65.6725 55.24C66.4192 55.24 67.0925 55.1133 67.6925 54.86C68.2925 54.5933 68.7925 54.22 69.1925 53.74V55H71.3525V47.72C71.3525 46.9733 71.1658 46.32 70.7925 45.76C70.4192 45.1867 69.9058 44.74 69.2525 44.42C68.5992 44.1 67.8458 43.94 66.9925 43.94C66.3125 43.94 65.6658 44.06 65.0525 44.3C64.4525 44.5267 63.9258 44.84 63.4725 45.24C63.0325 45.64 62.7058 46.1067 62.4925 46.64L64.3725 47.58C64.5858 47.0733 64.9125 46.6667 65.3525 46.36C65.8058 46.0533 66.3325 45.9 66.9325 45.9C67.5858 45.9 68.1058 46.0733 68.4925 46.42C68.8925 46.7533 69.0925 47.1867 69.0925 47.72V48.14L65.6525 48.7C64.3992 48.9133 63.4725 49.3267 62.8725 49.94C62.2858 50.54 61.9925 51.2733 61.9925 52.14C61.9925 53.0733 62.3325 53.8267 63.0125 54.4C63.6925 54.96 64.5792 55.24 65.6725 55.24ZM64.3525 52.06C64.3525 51.6333 64.4925 51.28 64.7725 51C65.0525 50.72 65.4925 50.5333 66.0925 50.44L69.0925 49.92V50.5C69.0925 51.0467 68.9592 51.5467 68.6925 52C68.4392 52.4533 68.0858 52.8133 67.6325 53.08C67.1792 53.3333 66.6458 53.46 66.0325 53.46C65.5392 53.46 65.1325 53.3333 64.8125 53.08C64.5058 52.8133 64.3525 52.4733 64.3525 52.06ZM73.595 55H75.855V48.62C75.855 47.82 76.0817 47.1933 76.535 46.74C76.9883 46.2733 77.5617 46.04 78.255 46.04C78.9617 46.04 79.535 46.2733 79.975 46.74C80.4283 47.1933 80.655 47.82 80.655 48.62V55H82.895V48C82.895 47.2 82.715 46.5 82.355 45.9C82.0083 45.2867 81.5283 44.8067 80.915 44.46C80.3017 44.1133 79.6017 43.94 78.815 43.94C78.1483 43.94 77.5483 44.0733 77.015 44.34C76.4817 44.6067 76.0617 44.9933 75.755 45.5V44.18H73.595V55ZM90.0538 55.24C90.8004 55.24 91.4938 55.1067 92.1338 54.84C92.7738 54.5733 93.3271 54.2133 93.7938 53.76C94.2738 53.2933 94.6204 52.7733 94.8338 52.2L92.8538 51.26C92.6138 51.8333 92.2471 52.2933 91.7538 52.64C91.2738 52.9733 90.7071 53.14 90.0538 53.14C89.4404 53.14 88.8871 52.9867 88.3938 52.68C87.9138 52.3733 87.5338 51.9533 87.2538 51.42C86.9738 50.8733 86.8338 50.26 86.8338 49.58C86.8338 48.8867 86.9738 48.28 87.2538 47.76C87.5338 47.2267 87.9138 46.8067 88.3938 46.5C88.8871 46.1933 89.4404 46.04 90.0538 46.04C90.7071 46.04 91.2804 46.2133 91.7738 46.56C92.2671 46.8933 92.6271 47.34 92.8538 47.9L94.8338 46.98C94.6071 46.38 94.2538 45.8533 93.7738 45.4C93.3071 44.9333 92.7538 44.5733 92.1138 44.32C91.4738 44.0667 90.7871 43.94 90.0538 43.94C88.9738 43.94 88.0138 44.1867 87.1738 44.68C86.3338 45.16 85.6738 45.8267 85.1938 46.68C84.7138 47.52 84.4738 48.48 84.4738 49.56C84.4738 50.64 84.7138 51.6067 85.1938 52.46C85.6738 53.3133 86.3338 53.9933 87.1738 54.5C88.0138 54.9933 88.9738 55.24 90.0538 55.24ZM101.723 55.24C102.829 55.24 103.789 54.9867 104.603 54.48C105.429 53.9733 106.009 53.3333 106.343 52.56L104.503 51.66C104.236 52.1133 103.869 52.4933 103.403 52.8C102.949 53.0933 102.396 53.24 101.743 53.24C100.889 53.24 100.163 52.9733 99.5627 52.44C98.9627 51.8933 98.6293 51.16 98.5627 50.24H106.603C106.643 50.08 106.669 49.9067 106.683 49.72C106.696 49.5333 106.703 49.3533 106.703 49.18C106.703 48.2467 106.496 47.3867 106.083 46.6C105.683 45.8 105.096 45.16 104.323 44.68C103.563 44.1867 102.636 43.94 101.543 43.94C100.529 43.94 99.616 44.1867 98.8027 44.68C98.0027 45.16 97.3693 45.8267 96.9027 46.68C96.436 47.52 96.2027 48.48 96.2027 49.56C96.2027 50.6267 96.436 51.5933 96.9027 52.46C97.3827 53.3133 98.036 53.9933 98.8627 54.5C99.6893 54.9933 100.643 55.24 101.723 55.24ZM101.543 45.84C102.303 45.84 102.943 46.08 103.463 46.56C103.983 47.04 104.263 47.6667 104.303 48.44H98.6027C98.736 47.6133 99.076 46.9733 99.6227 46.52C100.169 46.0667 100.809 45.84 101.543 45.84ZM117.044 55.24C118.044 55.24 118.924 55.06 119.684 54.7C120.458 54.34 121.058 53.84 121.484 53.2C121.911 52.5467 122.124 51.8067 122.124 50.98C122.124 49.02 120.931 47.6667 118.544 46.92L115.944 46.1C115.318 45.9133 114.851 45.6333 114.544 45.26C114.238 44.8867 114.084 44.46 114.084 43.98C114.084 43.3533 114.311 42.8533 114.764 42.48C115.231 42.1067 115.831 41.92 116.564 41.92C117.391 41.92 118.111 42.1333 118.724 42.56C119.338 42.9867 119.791 43.5933 120.084 44.38L122.044 43.52C121.804 42.8 121.418 42.1667 120.884 41.62C120.364 41.0733 119.738 40.6467 119.004 40.34C118.271 40.02 117.458 39.86 116.564 39.86C115.631 39.86 114.798 40.04 114.064 40.4C113.344 40.76 112.778 41.26 112.364 41.9C111.951 42.5267 111.744 43.26 111.744 44.1C111.744 45.06 112.038 45.9 112.624 46.62C113.211 47.3267 114.064 47.8533 115.184 48.2L117.984 49.08C118.571 49.2667 119.018 49.52 119.324 49.84C119.644 50.16 119.804 50.5933 119.804 51.14C119.804 51.7533 119.558 52.2467 119.064 52.62C118.584 52.98 117.944 53.16 117.144 53.16C116.238 53.16 115.431 52.9133 114.724 52.42C114.031 51.9267 113.511 51.22 113.164 50.3L111.164 51.14C111.431 51.94 111.844 52.6467 112.404 53.26C112.964 53.8733 113.638 54.36 114.424 54.72C115.224 55.0667 116.098 55.24 117.044 55.24ZM128.834 55.12C129.02 55.12 129.227 55.1067 129.454 55.08C129.68 55.0533 129.88 55.0267 130.054 55V53.06C129.8 53.1 129.554 53.12 129.314 53.12C128.66 53.12 128.194 52.9667 127.914 52.66C127.647 52.34 127.514 51.9067 127.514 51.36V46.22H129.974V44.18H127.514V41.7H125.254V42.54C125.254 43.0467 125.114 43.4467 124.834 43.74C124.554 44.0333 124.16 44.18 123.654 44.18H123.354V46.22H125.254V51.46C125.254 52.62 125.567 53.52 126.194 54.16C126.82 54.8 127.7 55.12 128.834 55.12ZM135.001 55.24C135.748 55.24 136.421 55.1133 137.021 54.86C137.621 54.5933 138.121 54.22 138.521 53.74V55H140.681V47.72C140.681 46.9733 140.495 46.32 140.121 45.76C139.748 45.1867 139.235 44.74 138.581 44.42C137.928 44.1 137.175 43.94 136.321 43.94C135.641 43.94 134.995 44.06 134.381 44.3C133.781 44.5267 133.255 44.84 132.801 45.24C132.361 45.64 132.035 46.1067 131.821 46.64L133.701 47.58C133.915 47.0733 134.241 46.6667 134.681 46.36C135.135 46.0533 135.661 45.9 136.261 45.9C136.915 45.9 137.435 46.0733 137.821 46.42C138.221 46.7533 138.421 47.1867 138.421 47.72V48.14L134.981 48.7C133.728 48.9133 132.801 49.3267 132.201 49.94C131.615 50.54 131.321 51.2733 131.321 52.14C131.321 53.0733 131.661 53.8267 132.341 54.4C133.021 54.96 133.908 55.24 135.001 55.24ZM133.681 52.06C133.681 51.6333 133.821 51.28 134.101 51C134.381 50.72 134.821 50.5333 135.421 50.44L138.421 49.92V50.5C138.421 51.0467 138.288 51.5467 138.021 52C137.768 52.4533 137.415 52.8133 136.961 53.08C136.508 53.3333 135.975 53.46 135.361 53.46C134.868 53.46 134.461 53.3333 134.141 53.08C133.835 52.8133 133.681 52.4733 133.681 52.06ZM147.409 55.12C147.595 55.12 147.802 55.1067 148.029 55.08C148.255 55.0533 148.455 55.0267 148.629 55V53.06C148.375 53.1 148.129 53.12 147.889 53.12C147.235 53.12 146.769 52.9667 146.489 52.66C146.222 52.34 146.089 51.9067 146.089 51.36V46.22H148.549V44.18H146.089V41.7H143.829V42.54C143.829 43.0467 143.689 43.4467 143.409 43.74C143.129 44.0333 142.735 44.18 142.229 44.18H141.929V46.22H143.829V51.46C143.829 52.62 144.142 53.52 144.769 54.16C145.395 54.8 146.275 55.12 147.409 55.12ZM150.434 42.7H152.694V40.1H150.434V42.7ZM150.434 55H152.694V44.18H150.434V55ZM158.936 55.24C159.736 55.24 160.436 55.1067 161.036 54.84C161.65 54.56 162.123 54.18 162.456 53.7C162.79 53.2067 162.956 52.64 162.956 52C162.956 51.2533 162.716 50.6133 162.236 50.08C161.756 49.5333 161.07 49.1333 160.176 48.88L158.416 48.36C158.083 48.2533 157.77 48.1067 157.476 47.92C157.183 47.7333 157.036 47.4533 157.036 47.08C157.036 46.6933 157.183 46.3867 157.476 46.16C157.77 45.9333 158.163 45.82 158.656 45.82C159.23 45.82 159.743 45.9733 160.196 46.28C160.663 46.5867 161.003 47 161.216 47.52L162.956 46.7C162.636 45.8333 162.09 45.16 161.316 44.68C160.543 44.1867 159.663 43.94 158.676 43.94C157.943 43.94 157.283 44.08 156.696 44.36C156.11 44.6267 155.65 45 155.316 45.48C154.983 45.96 154.816 46.5267 154.816 47.18C154.816 47.9133 155.043 48.5467 155.496 49.08C155.963 49.6133 156.663 50.0133 157.596 50.28L159.296 50.76C159.643 50.8533 159.97 51 160.276 51.2C160.583 51.3867 160.736 51.6733 160.736 52.06C160.736 52.4733 160.57 52.8 160.236 53.04C159.903 53.28 159.47 53.4 158.936 53.4C158.31 53.4 157.736 53.22 157.216 52.86C156.71 52.5 156.31 52.0133 156.016 51.4L154.276 52.22C154.61 53.14 155.19 53.8733 156.016 54.42C156.856 54.9667 157.83 55.24 158.936 55.24ZM169.451 55.12C169.637 55.12 169.844 55.1067 170.071 55.08C170.297 55.0533 170.497 55.0267 170.671 55V53.06C170.417 53.1 170.171 53.12 169.931 53.12C169.277 53.12 168.811 52.9667 168.531 52.66C168.264 52.34 168.131 51.9067 168.131 51.36V46.22H170.591V44.18H168.131V41.7H165.871V42.54C165.871 43.0467 165.731 43.4467 165.451 43.74C165.171 44.0333 164.777 44.18 164.271 44.18H163.971V46.22H165.871V51.46C165.871 52.62 166.184 53.52 166.811 54.16C167.437 54.8 168.317 55.12 169.451 55.12ZM172.476 42.7H174.736V40.1H172.476V42.7ZM172.476 55H174.736V44.18H172.476V55ZM182.119 55.24C182.865 55.24 183.559 55.1067 184.199 54.84C184.839 54.5733 185.392 54.2133 185.859 53.76C186.339 53.2933 186.685 52.7733 186.899 52.2L184.919 51.26C184.679 51.8333 184.312 52.2933 183.819 52.64C183.339 52.9733 182.772 53.14 182.119 53.14C181.505 53.14 180.952 52.9867 180.459 52.68C179.979 52.3733 179.599 51.9533 179.319 51.42C179.039 50.8733 178.899 50.26 178.899 49.58C178.899 48.8867 179.039 48.28 179.319 47.76C179.599 47.2267 179.979 46.8067 180.459 46.5C180.952 46.1933 181.505 46.04 182.119 46.04C182.772 46.04 183.345 46.2133 183.839 46.56C184.332 46.8933 184.692 47.34 184.919 47.9L186.899 46.98C186.672 46.38 186.319 45.8533 185.839 45.4C185.372 44.9333 184.819 44.5733 184.179 44.32C183.539 44.0667 182.852 43.94 182.119 43.94C181.039 43.94 180.079 44.1867 179.239 44.68C178.399 45.16 177.739 45.8267 177.259 46.68C176.779 47.52 176.539 48.48 176.539 49.56C176.539 50.64 176.779 51.6067 177.259 52.46C177.739 53.3133 178.399 53.9933 179.239 54.5C180.079 54.9933 181.039 55.24 182.119 55.24ZM192.707 55.24C193.507 55.24 194.207 55.1067 194.807 54.84C195.421 54.56 195.894 54.18 196.227 53.7C196.561 53.2067 196.727 52.64 196.727 52C196.727 51.2533 196.487 50.6133 196.007 50.08C195.527 49.5333 194.841 49.1333 193.947 48.88L192.187 48.36C191.854 48.2533 191.541 48.1067 191.247 47.92C190.954 47.7333 190.807 47.4533 190.807 47.08C190.807 46.6933 190.954 46.3867 191.247 46.16C191.541 45.9333 191.934 45.82 192.427 45.82C193.001 45.82 193.514 45.9733 193.967 46.28C194.434 46.5867 194.774 47 194.987 47.52L196.727 46.7C196.407 45.8333 195.861 45.16 195.087 44.68C194.314 44.1867 193.434 43.94 192.447 43.94C191.714 43.94 191.054 44.08 190.467 44.36C189.881 44.6267 189.421 45 189.087 45.48C188.754 45.96 188.587 46.5267 188.587 47.18C188.587 47.9133 188.814 48.5467 189.267 49.08C189.734 49.6133 190.434 50.0133 191.367 50.28L193.067 50.76C193.414 50.8533 193.741 51 194.047 51.2C194.354 51.3867 194.507 51.6733 194.507 52.06C194.507 52.4733 194.341 52.8 194.007 53.04C193.674 53.28 193.241 53.4 192.707 53.4C192.081 53.4 191.507 53.22 190.987 52.86C190.481 52.5 190.081 52.0133 189.787 51.4L188.047 52.22C188.381 53.14 188.961 53.8733 189.787 54.42C190.627 54.9667 191.601 55.24 192.707 55.24Z" fill="#90A3BF"/>
<g clip-path="url(#clip1_117_7112)">
<path d="M632.487 343.286L634.302 344.093C635.943 344.822 637 346.449 637 348.244V542.909C637 545.418 634.966 547.452 632.457 547.452H32.7896C30.2806 547.452 28.2467 545.418 28.2467 542.909V324.639C28.2467 324.029 28.3775 323.425 28.6302 322.869C30.3299 319.13 35.8103 319.702 36.7014 323.711L38.092 329.969C39.0049 334.078 44.5312 334.843 46.5266 331.138L47.4035 329.509C48.1958 328.038 49.7321 327.12 51.4034 327.12H60.9921C63.1003 327.12 64.9315 325.67 65.4143 323.618L68.6731 309.768C68.9661 308.522 69.7706 307.458 70.889 306.837L76.1464 303.916C78.0181 302.876 80.3616 303.285 81.7715 304.896L82.0836 305.252C84.3953 307.894 88.7021 307.028 89.8123 303.698L93.9702 291.224C94.0693 290.926 94.1374 290.62 94.1733 290.308L97.345 262.82C97.4625 261.802 97.9209 260.853 98.6457 260.128L102.074 256.699C104.571 254.202 108.838 255.384 109.694 258.81L110.93 263.751C111.552 266.24 114.585 267.19 116.516 265.501C118.585 263.69 121.837 264.928 122.178 267.657L127.446 309.802C128.07 314.793 135.141 315.22 136.361 310.34L138.413 302.134C138.963 297.598 145.587 297.734 145.949 302.289L147.03 315.877C147.468 321.38 155.492 321.487 156.076 315.997L156.375 313.187C156.509 311.932 157.158 310.79 158.167 310.033L161.128 307.813L163.803 305.583C165.648 304.045 168.467 305.073 168.889 307.438C169.543 311.097 174.893 310.771 175.097 307.059L178.546 244.293C178.729 240.961 183.297 240.177 184.581 243.258C184.839 243.877 185.288 244.398 185.864 244.743L190.129 247.302C193.001 249.025 196.687 247.154 196.991 243.818L202.2 186.515C202.56 182.554 207.477 180.935 210.12 183.909L211.271 185.203C211.898 185.909 212.29 186.794 212.392 187.733L216.627 226.912C216.726 227.823 217.098 228.684 217.695 229.38L221.525 233.848C222.767 235.297 224.782 235.815 226.569 235.145L227.571 234.77C230.228 233.773 233.139 235.431 233.638 238.225L234.908 245.337C235.754 250.077 242.425 250.417 243.748 245.787L244.589 242.845C244.958 241.552 245.882 240.488 247.112 239.942L254.036 236.865C254.911 236.476 255.612 235.78 256.008 234.909C257.584 231.442 262.681 232.043 263.408 235.781L268.308 260.979C268.723 263.113 270.592 264.655 272.767 264.655H281.376C283.46 264.655 285.277 266.073 285.783 268.096L287.9 276.565C288.153 277.575 289.06 278.283 290.101 278.283C291.078 278.283 291.945 278.908 292.254 279.835L293.579 283.809C294.907 287.794 300.467 287.997 302.082 284.12L302.848 282.281C303.011 281.89 303.229 281.522 303.494 281.191L306.929 276.898C307.394 276.316 307.709 275.629 307.846 274.897L310.927 258.466C311.005 258.051 311.14 257.649 311.329 257.271L314.078 251.774C314.325 251.279 314.48 250.744 314.535 250.194L317.107 224.474C317.448 221.065 321.296 219.245 324.147 221.146L326.41 222.654C327.474 223.364 328.19 224.489 328.381 225.754L333.38 258.748C333.616 260.302 334.638 261.624 336.083 262.243L337.431 262.821C339.777 263.826 342.49 262.702 343.438 260.332L345.802 254.423C347.031 251.35 351.097 250.706 353.215 253.248C353.854 254.015 354.736 254.54 355.715 254.735L367.306 257.054C369.552 257.503 371.782 256.209 372.507 254.036L376.622 241.689C376.817 241.105 377.128 240.567 377.536 240.107L379.471 237.93C382.045 235.035 386.829 236.483 387.366 240.319L393.001 280.573C393.453 283.796 397.047 285.513 399.838 283.838L410.138 277.658C413.087 275.889 416.857 277.912 417.013 281.348L421.095 371.152C421.167 372.726 422.05 374.151 423.427 374.917L430.65 378.929C431.167 379.216 431.622 379.601 431.991 380.062L440.164 390.279C440.399 390.572 440.597 390.894 440.752 391.237L445.932 402.632C446.108 403.018 446.228 403.427 446.29 403.846L450.165 430.002C450.495 432.229 452.407 433.879 454.659 433.879H458.132C460.403 433.879 462.326 435.557 462.633 437.808L464.498 451.487C464.957 454.856 468.819 456.545 471.605 454.595L475.415 451.928C476.345 451.276 476.998 450.3 477.245 449.191L479.743 437.949C480.491 434.581 484.573 433.244 487.169 435.516L489.482 437.539C490.14 438.116 490.618 438.869 490.858 439.71L493.985 450.654C494.848 453.675 499.178 453.53 499.836 450.458C500.564 447.062 505.509 447.382 505.793 450.843L510.165 504.03C510.476 507.814 515.017 509.569 517.792 506.979L526.812 498.561C527.561 497.861 528.052 496.928 528.205 495.914L531.078 476.755C531.268 475.488 531.985 474.36 533.051 473.649L533.168 473.571C534.2 472.883 534.906 471.803 535.122 470.581L537.752 455.676C538.025 454.128 539.079 452.831 540.538 452.248L545.392 450.306C547.57 449.435 550.011 450.723 550.52 453.014C551.395 456.952 556.992 456.999 557.934 453.076L560.658 441.726C560.821 441.047 561.138 440.414 561.586 439.878L565.222 435.514C566.085 434.478 567.364 433.879 568.712 433.879H569.246C570.451 433.879 571.606 433.4 572.458 432.548L574.251 430.756C575.747 429.26 578.077 428.995 579.871 430.116L584.385 432.937C585.354 433.543 586.059 434.491 586.36 435.594L586.616 436.534C587.927 441.342 594.905 440.836 595.508 435.888L598.073 414.856C598.267 413.27 599.278 411.903 600.738 411.254L606.458 408.712C607.806 408.113 608.779 406.897 609.068 405.452L610.326 399.159C610.647 397.555 612.056 396.4 613.692 396.4C615.351 396.4 616.772 395.213 617.069 393.581L618.535 385.519C618.705 384.585 619.518 383.907 620.467 383.907C621.472 383.907 622.315 383.148 622.421 382.148L626.124 346.962C626.447 343.894 629.669 342.033 632.487 343.286Z" fill="url(#paint0_linear_117_7112)"/>
<path d="M637 345.292L632.487 343.286C629.669 342.033 626.447 343.894 626.124 346.962L622.421 382.148C622.315 383.148 621.472 383.907 620.467 383.907V383.907C619.518 383.907 618.705 384.585 618.535 385.519L617.069 393.581C616.772 395.213 615.351 396.4 613.692 396.4V396.4C612.056 396.4 610.647 397.555 610.326 399.159L609.068 405.452C608.779 406.897 607.806 408.113 606.458 408.712L600.738 411.254C599.278 411.903 598.267 413.27 598.073 414.856L595.508 435.888C594.905 440.836 587.927 441.342 586.616 436.534L586.36 435.594C586.059 434.491 585.354 433.543 584.385 432.937L579.871 430.116C578.077 428.995 575.747 429.26 574.251 430.756L572.458 432.548C571.606 433.4 570.451 433.879 569.246 433.879H568.712C567.364 433.879 566.085 434.478 565.222 435.514L561.586 439.878C561.138 440.414 560.821 441.047 560.658 441.726L557.934 453.076C556.992 456.999 551.395 456.952 550.52 453.014V453.014C550.011 450.723 547.57 449.435 545.392 450.306L540.538 452.248C539.079 452.831 538.025 454.128 537.752 455.676L535.122 470.581C534.906 471.803 534.2 472.883 533.168 473.571L533.051 473.649C531.985 474.36 531.268 475.488 531.078 476.755L528.205 495.914C528.052 496.928 527.561 497.861 526.812 498.561L517.792 506.979C515.017 509.569 510.476 507.814 510.165 504.03L505.793 450.843C505.509 447.382 500.564 447.062 499.836 450.458V450.458C499.178 453.53 494.848 453.675 493.985 450.654L490.858 439.71C490.618 438.869 490.14 438.116 489.482 437.539L487.169 435.516C484.573 433.244 480.491 434.581 479.743 437.949L477.245 449.191C476.998 450.3 476.345 451.276 475.415 451.928L471.605 454.595C468.819 456.545 464.957 454.856 464.498 451.487L462.633 437.808C462.326 435.557 460.403 433.879 458.132 433.879H454.659C452.407 433.879 450.495 432.229 450.165 430.002L446.29 403.846C446.228 403.427 446.108 403.018 445.932 402.632L440.752 391.237C440.597 390.894 440.399 390.572 440.164 390.279L431.991 380.062C431.622 379.601 431.166 379.216 430.65 378.929L423.427 374.917C422.05 374.151 421.167 372.726 421.095 371.152L417.013 281.348C416.857 277.912 413.087 275.889 410.138 277.658L399.838 283.838C397.047 285.513 393.453 283.796 393.001 280.573L387.366 240.319C386.829 236.483 382.045 235.035 379.471 237.93L377.536 240.107C377.128 240.567 376.817 241.105 376.622 241.689L372.507 254.036C371.782 256.209 369.552 257.503 367.306 257.054L355.715 254.735C354.736 254.54 353.854 254.015 353.215 253.248V253.248C351.097 250.706 347.031 251.35 345.802 254.423L343.438 260.332C342.49 262.702 339.777 263.826 337.431 262.821L336.083 262.243C334.638 261.624 333.616 260.302 333.38 258.748L328.381 225.754C328.19 224.489 327.474 223.364 326.41 222.654L324.147 221.146C321.296 219.245 317.448 221.065 317.107 224.474L314.535 250.194C314.48 250.744 314.325 251.279 314.078 251.774L311.329 257.271C311.14 257.649 311.005 258.051 310.927 258.466L307.846 274.897C307.709 275.629 307.394 276.316 306.929 276.898L303.494 281.191C303.229 281.522 303.011 281.89 302.848 282.281L302.082 284.12C300.467 287.997 294.907 287.794 293.579 283.809L292.254 279.835C291.945 278.908 291.078 278.283 290.101 278.283V278.283C289.06 278.283 288.153 277.575 287.9 276.565L285.783 268.096C285.277 266.073 283.46 264.655 281.376 264.655H272.767C270.592 264.655 268.723 263.113 268.308 260.979L263.408 235.781C262.681 232.043 257.584 231.442 256.008 234.909V234.909C255.612 235.78 254.911 236.476 254.036 236.865L247.112 239.942C245.882 240.488 244.958 241.552 244.589 242.845L243.748 245.787C242.425 250.417 235.754 250.077 234.908 245.337L233.638 238.225C233.139 235.431 230.228 233.773 227.571 234.77L226.569 235.145C224.782 235.815 222.767 235.297 221.525 233.848L217.695 229.38C217.098 228.684 216.726 227.823 216.627 226.912L212.392 187.733C212.29 186.794 211.898 185.909 211.271 185.203L210.12 183.909C207.477 180.935 202.56 182.554 202.2 186.515L196.991 243.818C196.687 247.154 193.001 249.025 190.129 247.302L185.864 244.743C185.288 244.398 184.839 243.877 184.581 243.258V243.258C183.297 240.177 178.729 240.961 178.546 244.293L175.097 307.059C174.893 310.771 169.543 311.097 168.889 307.438V307.438C168.467 305.073 165.648 304.045 163.803 305.583L161.128 307.813L158.167 310.033C157.158 310.79 156.509 311.932 156.375 313.187L156.076 315.997C155.492 321.486 147.468 321.38 147.03 315.877L145.95 302.289C145.587 297.734 138.963 297.598 138.413 302.134V302.134L136.361 310.34C135.141 315.22 128.07 314.793 127.446 309.802L122.178 267.657C121.837 264.928 118.585 263.69 116.516 265.501V265.501C114.585 267.19 111.552 266.24 110.929 263.751L109.694 258.81C108.838 255.384 104.571 254.202 102.074 256.699L98.6457 260.128C97.9209 260.853 97.4625 261.802 97.3451 262.82L94.1733 290.308C94.1374 290.62 94.0693 290.926 93.9701 291.224L89.8123 303.698C88.7021 307.028 84.3952 307.894 82.0835 305.252L81.7716 304.896C80.3617 303.285 78.0181 302.876 76.1464 303.916L70.889 306.837C69.7706 307.458 68.9661 308.522 68.6731 309.768L65.4143 323.618C64.9315 325.67 63.1003 327.12 60.9921 327.12H51.4034C49.7321 327.12 48.1958 328.038 47.4035 329.509L46.5266 331.138C44.5313 334.843 39.005 334.078 38.092 329.969L36.8731 324.484C35.9269 320.226 30.0516 319.742 28.2467 323.713V323.713" stroke="#FF4423" stroke-width="3"/>
</g>
<defs>
<linearGradient id="paint0_linear_117_7112" x1="372" y1="-1198" x2="332.623" y2="573.574" gradientUnits="userSpaceOnUse">
<stop stop-color="#FF4423" stop-opacity="0.6"/>
<stop offset="1" stop-color="#FF4423" stop-opacity="0"/>
</linearGradient>
<clipPath id="clip0_117_7112">
<rect width="422" height="204" fill="white" transform="translate(32 191)"/>
</clipPath>
<clipPath id="clip1_117_7112">
<rect width="422" height="286" fill="white" transform="matrix(-1 0 0 1 454 116)"/>
</clipPath>
</defs>
</svg>
